<svg width="178" height="178" viewBox="0 0 178 178" fill="none" xmlns="http://www.w3.org/2000/svg">
<rect width="178" height="178" rx="89" fill="white"/>
<path d="M93.6748 88.9999C93.6748 78.0434 102.336 69.1694 113.012 69.1694C123.697 69.1694 132.35 78.0349 132.35 88.9999C132.35 99.9564 123.697 108.83 113.012 108.83C102.345 108.83 93.6748 99.9649 93.6748 88.9999Z" fill="#1ABCFE"/>
<path d="M55 128.67C55 117.713 63.6615 108.831 74.3375 108.831H93.675V128.67C93.675 139.618 85.0135 148.5 74.3375 148.5C63.6615 148.5 55 139.618 55 128.67Z" fill="#0ACF83"/>
<path d="M93.6748 29.5V69.1695H113.012C123.697 69.1695 132.35 60.287 132.35 49.3305C132.35 38.3825 123.697 29.5 113.012 29.5H93.6748Z" fill="#FF7262"/>
<path d="M55 49.3305C55 60.287 63.6615 69.1695 74.3375 69.1695H93.675V29.5H74.3375C63.6615 29.5 55 38.3825 55 49.3305Z" fill="#F24E1E"/>
<path d="M55 88.9999C55 99.9564 63.6615 108.83 74.3375 108.83H93.675V69.1694H74.3375C63.6615 69.1694 55 78.0349 55 88.9999Z" fill="#A259FF"/>
</svg>
