<svg width="178" height="178" viewBox="0 0 178 178" fill="none" xmlns="http://www.w3.org/2000/svg">
<rect width="178" height="178" rx="89" fill="white"/>
<g clip-path="url(#clip0_113_9)">
<path d="M134.081 49.2876L125.776 142.325L88.4447 152.674L51.2161 142.339L42.9199 49.2876H134.081Z" fill="#E44D26"/>
<path d="M88.5 144.763L118.666 136.4L125.763 56.8958H88.5V144.763Z" fill="#F16529"/>
<path d="M72.3561 79.7209H88.5007V68.3083H59.8838L60.157 71.3701L62.9619 102.82H88.5007V91.4074H73.3991L72.3561 79.7209Z" fill="#EBEBEB"/>
<path d="M74.9279 108.526H63.4717L65.0706 126.445L88.448 132.935L88.5005 132.92V121.047L88.4505 121.06L75.7405 117.628L74.9279 108.526Z" fill="#EBEBEB"/>
<path d="M51.4014 24H57.201V29.73H62.5063V24H68.3062V41.3519H62.5065V35.5415H57.2013V41.3519H51.4016L51.4014 24Z" fill="black"/>
<path d="M75.9329 29.7541H70.8271V24H86.841V29.7541H81.733V41.3519H75.9331L75.9329 29.7541Z" fill="black"/>
<path d="M89.3828 24H95.4302L99.1502 30.0969L102.866 24H108.916V41.3519H103.14V32.7513L99.1502 38.9209H99.0505L95.0575 32.7513V41.3519H89.3828V24Z" fill="black"/>
<path d="M111.803 24H117.604V35.6164H125.76V41.3519H111.803V24Z" fill="black"/>
<path d="M88.4609 102.82H102.514L101.189 117.621L88.4609 121.056V132.929L111.857 126.445L112.029 124.517L114.71 94.472L114.989 91.4075H88.4609V102.82Z" fill="white"/>
<path d="M88.4609 79.693V79.7209H116.027L116.256 77.1557L116.776 71.3701L117.049 68.3083H88.4609V79.693Z" fill="white"/>
</g>
<defs>
<clipPath id="clip0_113_9">
<rect width="129" height="129" fill="white" transform="translate(24 24)"/>
</clipPath>
</defs>
</svg>
