<svg width="178" height="178" viewBox="0 0 178 178" fill="none" xmlns="http://www.w3.org/2000/svg">
<g clip-path="url(#clip0_113_7)">
<rect width="178" height="178" rx="89" fill="white"/>
<path d="M135.091 91.1495C135.091 88.4347 133.9 85.8311 131.779 83.9115C129.659 81.9919 126.783 80.9135 123.784 80.9135C123.387 80.9131 122.991 80.9314 122.596 80.9684L138.128 39.498H72.1252L87.6356 80.9331C87.41 80.9331 87.18 80.9135 86.9501 80.9135C84.2501 80.9107 81.6382 81.7827 79.5867 83.3718C77.5352 84.9609 76.1795 87.1623 75.7649 89.5776C75.3503 91.993 75.9041 94.463 77.3262 96.5408C78.7483 98.6186 80.9447 100.167 83.5183 100.906C81.1132 104.655 78.1186 108.068 74.6285 111.036C70.0855 114.968 64.6881 118.001 58.7798 119.941C55.4695 118.52 52.8805 116.013 51.5388 112.927C50.1971 109.841 50.2033 106.408 51.5561 103.326C51.8901 102.619 52.2285 101.904 52.5496 101.189C55.0705 100.652 57.3113 99.3471 58.8976 97.4937C60.4839 95.6402 61.3195 93.35 61.2649 91.0058C61.2103 88.6616 60.2687 86.4054 58.5975 84.6142C56.9262 82.8229 54.6266 81.6052 52.0829 81.1644C49.5392 80.7237 46.9054 81.0866 44.6217 82.1926C42.3381 83.2985 40.5428 85.0806 39.5359 87.2408C38.529 89.4011 38.3716 91.8088 39.0898 94.0616C39.808 96.3143 41.3584 98.2757 43.482 99.6179C39.873 105.542 37.1187 111.861 35.2864 118.421C33.7506 126.807 35.2864 135.703 43.2911 140.735C61.9469 152.444 82.2037 133.476 103.558 128.712C111.298 126.983 119.793 127.262 126.609 123.688C129.071 122.418 131.195 120.673 132.829 118.577C134.463 116.481 135.567 114.085 136.063 111.559C136.516 109.152 136.431 106.687 135.811 104.31C135.192 101.934 134.051 99.6943 132.457 97.7247C134.158 95.8845 135.089 93.5608 135.086 91.1613L135.091 91.1495ZM98.2607 91.2045V91.1691C98.2639 89.4076 97.7638 87.6753 96.809 86.1405C95.8542 84.6057 94.477 83.3205 92.8115 82.41L105.15 59.7815L117.515 82.6181C115.964 83.5514 114.692 84.8178 113.813 86.3044C112.934 87.791 112.476 89.4515 112.478 91.1377C112.478 91.2123 112.478 91.2869 112.478 91.3616L98.2607 91.2045Z" fill="#C63D14"/>
<path d="M137.854 91.1495C137.85 88.1816 136.702 85.3079 134.609 83.0236C132.516 80.7393 129.609 79.1875 126.387 78.6354L141.98 37H68.2767L83.8956 78.7179C81.1689 79.2696 78.6855 80.5443 76.7624 82.3793C74.8393 84.2143 73.5636 86.5263 73.0981 89.0205C72.6326 91.5146 72.9984 94.0778 74.1487 96.3829C75.2991 98.6881 77.1819 100.631 79.557 101.963C77.595 104.602 75.3132 107.034 72.7541 109.214C68.7929 112.645 64.138 115.352 59.0443 117.187C56.6538 115.931 54.8418 113.939 53.9387 111.574C53.0355 109.209 53.1014 106.629 54.1243 104.304L54.2979 103.939L54.6189 103.251C57.5105 102.344 59.9967 100.608 61.7009 98.3064C63.4052 96.005 64.2347 93.2635 64.0639 90.4971C63.893 87.7307 62.7311 85.09 60.7541 82.975C58.7771 80.8599 56.0927 79.3857 53.1074 78.7756C50.1221 78.1654 46.9985 78.4526 44.2096 79.5936C41.4207 80.7346 39.1184 82.6673 37.6514 85.0989C36.1844 87.5306 35.6325 90.3288 36.0794 93.0699C36.5264 95.8109 37.9477 98.3455 40.1281 100.29C39.6596 101.197 39.165 102.116 38.6574 103.063C35.8444 107.745 33.7983 112.773 32.5834 117.989C30.5659 128.987 33.8199 137.797 41.7421 142.766C45.9949 145.519 51.0957 146.993 56.324 146.98C65.5738 146.98 74.9321 142.773 84.0908 138.657C90.4899 135.506 97.2411 132.981 104.23 131.123C106.734 130.566 109.311 130.228 112.04 129.87C117.599 129.468 123.021 128.097 128.006 125.833C130.817 124.379 133.241 122.383 135.105 119.987C136.97 117.591 138.23 114.853 138.796 111.967C139.718 107.064 138.653 102.025 135.798 97.7759C137.148 95.7807 137.862 93.4857 137.859 91.1456L137.854 91.1495ZM132.331 91.1495C132.331 92.68 131.83 94.176 130.891 95.4485C129.952 96.721 128.617 97.7128 127.055 98.2984C125.493 98.8841 123.775 99.0373 122.117 98.7388C120.459 98.4402 118.936 97.7032 117.741 96.6211C116.545 95.5389 115.731 94.1601 115.402 92.6591C115.072 91.1581 115.241 89.6023 115.888 88.1884C116.535 86.7745 117.63 85.566 119.036 84.7157C120.441 83.8655 122.094 83.4117 123.784 83.4117C126.05 83.4137 128.223 84.2296 129.825 85.6803C131.428 87.131 132.329 89.098 132.331 91.1495ZM134.271 42.0002L120.5 78.765C119.91 78.8941 119.331 79.0582 118.765 79.256L105.163 54.1176L91.5184 79.1067C90.9244 78.9204 90.317 78.7708 89.7006 78.6589L75.9777 42.0002H134.271ZM86.9499 83.4117C88.6404 83.4117 90.2928 83.8655 91.6984 84.7157C93.1039 85.566 94.1994 86.7745 94.8463 88.1884C95.4932 89.6023 95.6625 91.1581 95.3327 92.6591C95.0029 94.1601 94.1889 95.5389 92.9936 96.6211C91.7982 97.7032 90.2753 98.4402 88.6174 98.7388C86.9594 99.0373 85.2409 98.8841 83.6791 98.2984C82.1174 97.7128 80.7825 96.721 79.8434 95.4485C78.9042 94.176 78.403 92.68 78.403 91.1495C78.4053 89.098 79.3065 87.131 80.9088 85.6803C82.5112 84.2296 84.6838 83.4137 86.9499 83.4117ZM49.9767 83.4863C51.6679 83.4871 53.3208 83.942 54.7262 84.7936C56.1316 85.6452 57.2264 86.8552 57.872 88.2703C58.5176 89.6854 58.685 91.2421 58.3529 92.7434C58.0209 94.2447 57.2044 95.623 56.0067 96.704C54.8091 97.785 53.2841 98.52 51.6248 98.8161C49.9656 99.1121 48.2466 98.9558 46.6855 98.367C45.1244 97.7782 43.7913 96.7834 42.8549 95.5084C41.9186 94.2334 41.4211 92.7356 41.4254 91.2045C41.4277 89.153 42.3289 87.186 43.9313 85.7353C45.5336 84.2846 47.7062 83.4687 49.9723 83.4666L49.9767 83.4863ZM133.351 111.115C132.922 113.28 131.973 115.333 130.57 117.129C129.167 118.925 127.345 120.42 125.233 121.508C120.852 123.434 116.107 124.592 111.25 124.921C108.508 125.279 105.675 125.648 102.903 126.269C95.5227 128.203 88.395 130.854 81.6439 134.175C67.9166 140.346 56.0463 145.676 44.8875 138.665C36.7007 133.527 37.0781 124.022 38.0326 118.813C39.1559 114.074 41.0292 109.506 43.5947 105.251C43.9938 104.508 44.3843 103.778 44.7661 103.055C45.9315 103.477 47.1544 103.754 48.4018 103.88C47.2976 107.411 47.6061 111.181 49.273 114.527C50.9399 117.872 53.858 120.577 57.5128 122.164L58.5757 122.659L59.6994 122.298C65.9673 120.249 71.6935 117.038 76.5113 112.871C79.6937 110.16 82.4892 107.1 84.8327 103.762C87.8312 104.175 90.8968 103.699 93.572 102.405C96.2473 101.112 98.3888 99.0694 99.677 96.5835C100.965 94.0977 101.331 91.3013 100.72 88.6118C100.109 85.9222 98.5539 83.4836 96.2865 81.6598L105.129 65.4731L114.062 81.9701C111.52 84.1878 109.993 87.19 109.784 90.3801C109.575 93.5703 110.699 96.7148 112.934 99.1889C115.168 101.663 118.349 103.285 121.844 103.734C125.339 104.182 128.892 103.424 131.798 101.609C133.409 104.553 133.948 107.884 133.338 111.123L133.351 111.115Z" fill="white"/>
</g>
<defs>
<clipPath id="clip0_113_7">
<rect width="178" height="178" rx="89" fill="white"/>
</clipPath>
</defs>
</svg>
