<svg width="178" height="178" viewBox="0 0 178 178" fill="none" xmlns="http://www.w3.org/2000/svg">
<g clip-path="url(#clip0_113_3)">
<rect width="178" height="178" rx="89" fill="white"/>
<path d="M149.19 -15H13.9748C-2.02756 -15 -15 -2.02756 -15 13.9748V149.19C-15 165.193 -2.02756 178.165 13.9748 178.165H149.19C165.193 178.165 178.165 165.193 178.165 149.19V13.9748C178.165 -2.02756 165.193 -15 149.19 -15Z" fill="#F7DF1E"/>
<path d="M107.237 124.592C111.01 131.006 116.292 135.533 124.969 135.533C132.515 135.533 137.419 131.76 137.419 126.478C137.419 120.442 132.515 118.178 124.215 114.406L119.687 112.519C106.483 106.86 97.8054 100.069 97.8054 85.3553C97.8054 71.7734 107.992 61.2097 124.215 61.2097C135.91 61.2097 144.21 65.3597 149.869 75.9235L135.91 84.9781C132.892 79.3189 129.497 77.0553 124.215 77.0553C118.933 77.0553 115.537 80.4508 115.537 84.9781C115.537 90.2599 118.933 92.5236 126.856 95.9191L131.383 97.8054C146.851 104.596 155.529 111.01 155.529 126.478C155.529 142.701 142.701 151.756 125.346 151.756C108.369 151.756 97.4281 143.833 92.1463 133.269L107.237 124.592ZM43.1005 126.101C46.1187 131.006 48.3823 135.533 54.796 135.533C60.8324 135.533 64.6052 133.269 64.6052 124.215V61.587H82.7144V123.46C82.7144 142.324 71.7734 150.624 55.5505 150.624C40.8368 150.624 32.5367 143.078 28.3867 134.024L43.1005 126.101Z" fill="black"/>
</g>
<defs>
<clipPath id="clip0_113_3">
<rect width="178" height="178" rx="89" fill="white"/>
</clipPath>
</defs>
</svg>
