<svg width="178" height="178" viewBox="0 0 178 178" fill="none" xmlns="http://www.w3.org/2000/svg">
<g clip-path="url(#clip0_113_6)">
<rect width="178" height="178" rx="89" fill="white"/>
<mask id="mask0_113_6" style="mask-type:luminance" maskUnits="userSpaceOnUse" x="-11" y="-9" width="191" height="191">
<path d="M179.667 -8.15503H-10.3027V181.815H179.667V-8.15503Z" fill="white"/>
</mask>
<g mask="url(#mask0_113_6)">
<path d="M78.4615 -8.1039C78.0531 -8.06676 76.7526 -7.93677 75.5827 -7.84392C48.6009 -5.41127 23.3273 9.14751 7.32007 31.5242C-1.59348 43.9661 -7.29441 58.0792 -9.44852 73.0278C-10.2099 78.2465 -10.3027 79.7876 -10.3027 86.8624C-10.3027 93.938 -10.2099 95.4791 -9.44852 100.697C-4.28609 136.37 21.099 166.342 55.5276 177.446C61.6927 179.433 68.1922 180.789 75.5827 181.606C78.4615 181.922 90.903 181.922 93.7818 181.606C106.539 180.195 117.347 177.038 128.006 171.597C129.64 170.761 129.955 170.539 129.733 170.353C129.584 170.241 122.621 160.901 114.264 149.61L99.0741 129.09L80.0399 100.92C69.5662 85.4329 60.9499 72.7682 60.8757 72.7682C60.8014 72.7492 60.7271 85.2659 60.6899 100.548C60.6343 127.308 60.6157 128.385 60.2814 129.016C59.7986 129.926 59.4272 130.297 58.6473 130.706C58.0531 131.004 57.5331 131.059 54.7291 131.059H51.5164L50.6622 130.521C50.1051 130.168 49.6966 129.703 49.4181 129.165L49.0281 128.329L49.0652 91.0964L49.1209 53.8452L49.6966 53.1211C49.9937 52.7311 50.6251 52.2297 51.0708 51.9883C51.8321 51.6169 52.1292 51.5798 55.3418 51.5798C59.1301 51.5798 59.7614 51.7283 60.7456 52.8053C61.0242 53.1025 71.3305 68.6269 83.6612 87.3271C95.991 106.026 112.852 131.56 121.135 144.095L136.177 166.88L136.938 166.379C143.679 161.996 150.81 155.757 156.455 149.257C168.469 135.46 176.213 118.636 178.813 100.697C179.575 95.4791 179.667 93.938 179.667 86.8624C179.667 79.7876 179.575 78.2465 178.813 73.0278C173.651 37.3552 148.265 7.38341 113.837 -3.72141C107.764 -5.68981 101.302 -7.04541 94.0604 -7.86249C92.2771 -8.04819 80.0027 -8.25246 78.4615 -8.1039ZM117.347 49.3513C118.238 49.7971 118.962 50.6512 119.222 51.5426C119.371 52.0254 119.408 62.3503 119.371 85.6181L119.315 119.007L113.429 109.982L107.523 100.957V76.6864C107.523 60.9947 107.597 52.174 107.709 51.7469C108.006 50.7069 108.656 49.8899 109.547 49.4071C110.308 49.0171 110.587 48.9799 113.503 48.9799C116.251 48.9799 116.734 49.0171 117.347 49.3513Z" fill="black"/>
</g>
</g>
<defs>
<clipPath id="clip0_113_6">
<rect width="178" height="178" rx="89" fill="white"/>
</clipPath>
</defs>
</svg>
