<svg width="178" height="178" viewBox="0 0 178 178" fill="none" xmlns="http://www.w3.org/2000/svg">
<g clip-path="url(#clip0_113_5)">
<rect width="178" height="178" rx="89" fill="#222222"/>
<g clip-path="url(#clip1_113_5)">
<path d="M88.5033 102.007C96.0386 102.007 102.147 95.8982 102.147 88.3629C102.147 80.8276 96.0386 74.719 88.5033 74.719C80.968 74.719 74.8594 80.8276 74.8594 88.3629C74.8594 95.8982 80.968 102.007 88.5033 102.007Z" fill="#00D8FF"/>
<path fill-rule="evenodd" clip-rule="evenodd" d="M89.5053 59.6035C112.768 59.7619 138.149 61.459 155.571 76.9951C156.083 77.4521 156.576 77.9274 157.058 78.418C161.168 82.6074 163.316 89.3715 159.998 94.9381C153.191 106.367 137.969 111.352 123.231 114.42C101.19 119.008 78.1435 119.045 56.1115 115.005C43.4335 112.677 30.469 108.597 21.4594 100.063C17.9525 96.7418 14.9544 92.3726 15.4236 87.5098C16.1853 79.6428 23.7324 74.5941 30.0851 71.1755C47.7296 61.6815 69.2283 59.5578 89.5053 59.6035ZM87.8173 63.1775C65.8067 63.3268 41.9832 64.7314 24.9877 78.8049C24.3936 79.2955 23.8208 79.8104 23.2693 80.3497C22.9128 80.697 22.5685 81.0596 22.2364 81.4313C19.2535 84.7829 18.2267 90.1667 21.042 94.1916C23.8756 98.2409 28.1778 101.163 32.608 103.546C49.1769 112.455 68.7561 114.036 87.8447 114.103C107.171 114.173 127.101 112.412 144.172 103.585C150.973 100.066 158.627 94.8985 158.356 88.2441C158.106 82.1382 152.152 78.3662 147.695 75.6727C146.488 74.9445 145.248 74.2712 143.99 73.6374C127.043 65.1458 107.183 63.1348 87.8173 63.1775Z" fill="#00D8FF"/>
<path fill-rule="evenodd" clip-rule="evenodd" d="M119.319 23.6107C127.829 23.8271 132.238 34.0585 132.82 41.6147C132.936 43.1168 132.978 44.625 132.96 46.1332C132.942 47.7664 132.853 49.3995 132.71 51.0265C130.916 71.1724 121.717 90.3586 110.885 108.076C100.291 125.407 87.3727 142.689 69.7983 150.72C63.9879 153.377 57.0776 155.016 51.9344 152.052C44.884 147.99 44.1131 138.49 44.2441 131.284C44.2776 129.514 44.3934 127.744 44.5762 125.98C47.2849 99.8984 60.5053 75.1913 77.0498 53.9058C86.7023 41.4867 98.186 29.1682 112.491 24.7076C114.743 24.0038 116.531 23.5772 119.319 23.6107ZM118.911 27.1817C108.92 27.3401 99.9502 34.744 92.007 42.4374C71.1237 62.6595 55.7339 89.5542 49.5427 117.759C49.0643 119.944 48.6621 122.144 48.3666 124.359C48.138 126.074 47.9705 127.799 47.8821 129.529C47.812 130.906 47.7876 132.287 47.8303 133.667C47.8608 134.745 47.9309 135.824 48.0497 136.897C48.138 137.716 48.2569 138.533 48.4062 139.343C48.5189 139.943 48.6499 140.541 48.8023 141.135C48.9272 141.616 49.0673 142.095 49.2258 142.57C50.4719 146.327 53.6834 149.916 57.9947 150.035C68.0524 150.309 77.5221 142.975 85.7091 135.004C100.081 121.016 110.791 103.439 119.158 84.9626C125.91 70.0451 132.086 53.8296 128.636 37.41C128.505 36.7885 128.353 36.173 128.179 35.5636C128.036 35.067 127.875 34.5764 127.698 34.092C126.357 30.4388 123.204 27.1725 118.911 27.1817Z" fill="#00D8FF"/>
<path fill-rule="evenodd" clip-rule="evenodd" d="M58.363 23.7449C69.222 23.9551 78.9751 31.3255 87.6343 39.5795C103.435 54.6402 115.09 73.799 123.932 93.9632C130.781 109.585 137.082 127.119 131.482 143.603C129.718 148.798 125.254 153.551 119.304 153.673C108.393 153.892 98.2801 145.958 89.5051 137.418C67.4914 115.986 51.148 87.6927 45.5478 57.6871C45.1456 55.5421 44.8257 53.3788 44.6063 51.2064C44.4266 49.4331 44.3138 47.6507 44.2834 45.8683C44.259 44.4301 44.2894 42.992 44.39 41.56C44.457 40.6033 44.5545 39.6526 44.6855 38.7051C44.8105 37.8154 44.9689 36.9287 45.1669 36.0512C45.298 35.4693 45.4442 34.8934 45.6118 34.3206C47.2541 28.7052 51.5258 23.7022 58.363 23.7449ZM57.9516 27.3189C51.5928 27.459 48.683 34.9574 48.098 40.2194C47.9792 41.2979 47.9061 42.3857 47.8726 43.4734C47.8299 44.8628 47.8482 46.2552 47.9183 47.6446C48.9176 67.7509 57.9059 87.19 68.7528 104.99C78.9659 121.748 91.2997 138.438 108.265 147.018C113.164 149.496 119.118 151.442 123.35 149.102C128.657 146.165 129.309 139.167 129.593 133.95C129.669 132.531 129.678 131.105 129.632 129.682C129.578 127.896 129.437 126.114 129.227 124.341C127.271 107.775 119.934 92.0985 111.507 77.2846C101.019 58.8571 88.1705 40.4905 69.9868 30.8959C66.2209 28.9094 62.1441 27.2854 57.9516 27.3189Z" fill="#00D8FF"/>
</g>
</g>
<defs>
<clipPath id="clip0_113_5">
<rect width="178" height="178" rx="89" fill="white"/>
</clipPath>
<clipPath id="clip1_113_5">
<rect width="195" height="195" fill="white" transform="translate(-9 -9)"/>
</clipPath>
</defs>
</svg>
