<svg width="178" height="178" viewBox="0 0 178 178" fill="none" xmlns="http://www.w3.org/2000/svg">
<g clip-path="url(#clip0_113_4)">
<rect width="178" height="178" rx="89" fill="white"/>
<rect width="800" height="800" transform="translate(-138 -147)" fill="#007ACC"/>
<path d="M-24 69.5V170H76.5H177V69.5V-31H76.5H-24V69.5Z" fill="#007ACC"/>
<path d="M20.4481 70.1666L20.3843 78.398L33.4653 78.398H46.5462V115.567L46.5462 152.736H55.7986H65.051V115.567L65.051 78.398H78.1319H91.2129V70.3261C91.2129 65.8594 91.1172 62.1266 90.9896 62.0308C90.8938 61.9032 74.9734 61.8394 55.671 61.8713L20.5438 61.967L20.4481 70.1666Z" fill="white"/>
<path d="M138.187 61.7335C143.292 63.0097 147.184 65.275 150.758 68.9759C152.608 70.954 155.352 74.5592 155.575 75.4207C155.639 75.6759 146.897 81.5464 141.601 84.8326C141.41 84.9602 140.644 84.1307 139.783 82.8545C137.198 79.0897 134.486 77.4626 130.339 77.1754C124.245 76.7607 120.321 79.9511 120.353 85.2792C120.353 86.8426 120.576 87.7678 121.214 89.044C122.554 91.8197 125.043 93.4788 132.859 96.8607C147.248 103.05 153.406 107.134 157.234 112.941C161.51 119.417 162.467 129.754 159.563 137.444C156.373 145.803 148.461 151.482 137.326 153.364C133.88 153.97 125.713 153.874 122.012 153.204C113.94 151.769 106.283 147.781 101.561 142.548C99.7102 140.506 96.1049 135.178 96.3283 134.795C96.424 134.668 97.2535 134.157 98.1788 133.615C99.0721 133.104 102.454 131.158 105.644 129.308L111.419 125.958L112.632 127.744C114.323 130.329 118.024 133.87 120.257 135.051C126.67 138.433 135.475 137.954 139.814 134.062C141.665 132.371 142.431 130.616 142.431 128.032C142.431 125.703 142.144 124.682 140.931 122.927C139.368 120.694 136.177 118.811 127.116 114.887C116.747 110.42 112.281 107.644 108.197 103.242C105.836 100.689 103.603 96.6054 102.677 93.1916C101.912 90.3521 101.72 83.2373 102.326 80.3659C104.464 70.3478 112.025 63.3607 122.937 61.2869C126.478 60.6169 134.71 60.8721 138.187 61.7335Z" fill="white"/>
</g>
<defs>
<clipPath id="clip0_113_4">
<rect width="178" height="178" rx="89" fill="white"/>
</clipPath>
</defs>
</svg>
